<svg xmlns="http://www.w3.org/2000/svg" viewBox="0 0 400 400" width="400" height="400">
	<style>
		tspan { white-space:pre }
		.shp0 { fill: blue; } 
	</style>
	<path id="Background" fill-rule="evenodd" class="shp0" d="M358.59 41.41C357.66 40.47 356.46 40 355 40L45 40C43.54 40 42.34 40.47 41.41 41.41C40.47 42.34 40 43.54 40 45L40 75C40 76.46 40.47 77.66 41.41 78.59C42.34 79.53 43.54 80 45 80L355 80C356.46 80 357.66 79.53 358.59 78.59C359.53 77.66 360 76.46 360 75L360 45C360 43.54 359.53 42.34 358.59 41.41ZM372.66 92.66C367.76 97.55 361.87 100 355 100L45 100C38.13 100 32.24 97.55 27.34 92.66C22.45 87.76 20 81.87 20 75L20 45C20 38.13 22.45 32.24 27.34 27.34C32.24 22.45 38.13 20 45 20L355 20C361.87 20 367.76 22.45 372.66 27.34C377.55 32.24 380 38.13 380 45L380 75C380 81.87 377.55 87.76 372.66 92.66ZM386.8 13.2C377.99 4.4 367.4 0 355 0L45 0C32.6 0 22 4.4 13.2 13.2C4.4 22.01 0 32.6 0 45L0 75C0 87.4 4.4 98 13.2 106.8C22 115.6 32.6 120 45 120L355 120C367.4 120 377.99 115.6 386.8 106.8C395.6 98 400 87.4 400 75L400 45C400 32.6 395.6 22.01 386.8 13.2ZM80 100L320 100L320 120L80 120L80 100Z" />
	<path id="Shape 1" class="shp0" d="M320 86.67C320 79.33 317.55 73.05 312.66 67.83C307.76 62.61 301.88 60 295 60L105 60C98.12 60 92.24 62.61 87.34 67.83C82.45 73.05 80 79.33 80 86.67L80 353.33C80 360.67 82.45 366.94 87.34 372.17C92.24 377.39 98.12 380 105 380L295 380C301.88 380 307.76 377.39 312.66 372.17C317.55 366.94 320 360.67 320 353.33L320 86.67ZM300 353.33C300 354.78 299.5 356.03 298.52 357.08C297.52 358.14 296.35 358.67 295 358.67L260 358.67L260 81.33L295 81.33C296.35 81.33 297.52 81.86 298.52 82.92C299.5 83.97 300 85.22 300 86.67L300 353.33ZM100 86.67C100 85.22 100.49 83.97 101.48 82.92C102.47 81.86 103.65 81.33 105 81.33L200 81.33L200 358.67L105 358.67C103.65 358.67 102.47 358.14 101.48 357.08C100.49 356.03 100 354.78 100 353.33L100 86.67ZM120 145.33L140 145.33L140 102.67L120 102.67L120 145.33ZM120 230.67L140 230.67L140 166.67L120 166.67L120 230.67Z" />
</svg>