<?xml version="1.0" encoding="utf-8"?>
<!-- Generator: Adobe Illustrator 18.0.0, SVG Export Plug-In . SVG Version: 6.00 Build 0)  -->
<!DOCTYPE svg PUBLIC "-//W3C//DTD SVG 1.1//EN" "http://www.w3.org/Graphics/SVG/1.1/DTD/svg11.dtd">
<svg version="1.1" id="Capa_1" xmlns="http://www.w3.org/2000/svg" xmlns:xlink="http://www.w3.org/1999/xlink" x="0px" y="0px"
	 viewBox="128 25.7 1024 972.7" enable-background="new 128 25.7 1024 972.7" xml:space="preserve">
<g>
	<path fill="blue" d="M1028.7,25.7H251.3C183.3,25.7,128,81,128,149v88.1c0,68,55.3,123.3,123.3,123.3h34.4v534
		c0,57.3,46.6,103.8,103.8,103.8h498.7c57.3,0,103.8-46.6,103.8-103.8v-534h36.5c68,0,123.3-55.3,123.3-123.3V149
		C1152,81,1096.7,25.7,1028.7,25.7z M824.3,604.1h-45.9v61.7h-46.3v-61.3h-45.9v61.3H640v-61.3H455.7v-0.4V473.4
		c0-63.4,51.4-115.3,115.3-115.3s115.3,51.4,115.3,115.3v69.4h46.3V404.4h46.3v138.4h45.4V604.1z M1089.2,149v88.1
		c0,33.4-27.1,60.5-60.5,60.5h-36.5V259h14.3c17.3,0,31.4-14.1,31.4-31.4v-69.1c0-17.3-14.1-31.4-31.4-31.4H273.5
		c-17.3,0-31.4,14.1-31.4,31.4v69.1c0,17.3,14.1,31.4,31.4,31.4h12.2v38.6h-34.4c-33.4,0-60.5-27.1-60.5-60.5V149
		c0-33.4,27.1-60.5,60.5-60.5h777.3C1062,88.5,1089.2,115.6,1089.2,149L1089.2,149z"/>
	<path fill="blue" d="M571,408.7c-38.1,0-69,30.9-69,69v65.1h138v-65.1C640,439.6,609.1,408.7,571,408.7z"/>
</g>
</svg>
