<?xml version="1.0" encoding="utf-8"?>
<!-- Generator: Adobe Illustrator 16.0.0, SVG Export Plug-In . SVG Version: 6.00 Build 0)  -->
<!DOCTYPE svg PUBLIC "-//W3C//DTD SVG 1.1//EN" "http://www.w3.org/Graphics/SVG/1.1/DTD/svg11.dtd">
<svg version="1.1"
	 id="svg3423" xmlns:dc="http://purl.org/dc/elements/1.1/" xmlns:cc="http://creativecommons.org/ns#" xmlns:rdf="http://www.w3.org/1999/02/22-rdf-syntax-ns#" xmlns:svg="http://www.w3.org/2000/svg" xmlns:sodipodi="http://sodipodi.sourceforge.net/DTD/sodipodi-0.dtd" xmlns:inkscape="http://www.inkscape.org/namespaces/inkscape" inkscape:export-filename="" sodipodi:docname="Logo1.svg" inkscape:export-ydpi="300" inkscape:export-xdpi="300" inkscape:version="0.48.2 r9819"
	 xmlns="http://www.w3.org/2000/svg" xmlns:xlink="http://www.w3.org/1999/xlink" x="0px" y="0px" width="2892.242px"
	 height="753.046px" viewBox="0 0 2892.242 753.046" enable-background="new 0 0 2892.242 753.046" xml:space="preserve">
<path id="path3007" inkscape:connector-curvature="0" fill="#FFFFFF" d="M1185.888,257.872
	c14.818-16.172,15.271-40.252,15.271-56.349V0h60.992v209.809c0,27.221-3.699,57.793-28.195,82.788
	c-32.354,33.251-82.705,34.601-112.303,34.601c-29.55,0-79.99-1.35-112.329-34.601c-24.511-24.995-28.195-55.567-28.195-82.788V0
	h60.987v201.523c0,17.985,0.49,39.734,15.761,56.349c17.115,18.48,44.81,20.778,63.776,20.778
	C1139.218,278.65,1169.263,276.352,1185.888,257.872"/>
<path id="path3009" inkscape:connector-curvature="0" fill="#FFFFFF" d="M1291.892,170.981c0-26.798,4.676-53.143,25.443-71.124
	c22.657-19.867,54.552-21.312,73.471-21.312h36.524v41.626h-22.614c-14.364,0-33.33,1.809-46.255,17.074
	c-10.168,12.524-12.477,29.593-12.477,48.095v138.168h-54.092V170.981"/>
<path id="path3011" inkscape:connector-curvature="0" fill="#FFFFFF" d="M1499.982,261.562c0,5.061-0.459,11.544,3.689,16.183
	c3.69,3.764,9.236,4.227,14.771,4.227h39.323c14.322,0,38.821-0.99,51.304-25.038c3.237-6.484,8.292-19.904,8.292-52.248
	c0-38.753-6.452-54.019-8.292-57.708c-10.627-22.661-32.833-26.805-49.459-26.805h-59.628V261.562L1499.982,261.562z M1499.982,0
	v78.546h71.65c29.556,0,64.688,4.687,85.494,40.187c13.426,22.666,16.172,52.702,16.172,83.696c0,39.724-5.982,64.193-15.713,80.892
	c-19.867,34.263-55.906,40.188-84.593,40.188h-77.201c-13.837,0-27.706-0.454-38.785-10.585
	c-9.694-9.277-11.085-20.778-11.085-30.509V0H1499.982"/>
<path id="path3013" inkscape:connector-curvature="0" fill="#FFFFFF" d="M1779.27,212.603c-3.657,0-13.831,0.454-19.872,8.254
	c-1.84,2.342-5.999,8.825-5.999,26.356c0,7.464,0.954,20.389,7.396,27.326c3.688,3.648,10.668,7.433,17.568,7.433h75.352
	c3.241,0,8.297,0,11.991-2.867c3.69-3.205,3.69-6.452,3.69-10.142v-56.359H1779.27z M1854.622,78.546
	c20.811,0,39.734,7.4,50.819,18.971c10.173,10.633,18.018,30.494,18.018,57.714v127.183c0,8.824-0.907,22.666-9.689,31.406
	c-8.786,8.781-22.164,9.688-33.698,9.688h-116.978c-13.416,0-30.495,0-44.404-11.955c-19.862-17.079-21.228-48.631-21.228-66.606
	c0-21.749,2.304-43.424,20.774-59.606c15.271-13.378,31.927-14.359,44.857-14.359h106.304v-17.11c0-7.348-0.901-15.719-6.926-23.071
	c-7.396-9.272-18.023-10.627-26.319-10.627h-120.637V78.546H1854.622"/>
<path id="path3015" inkscape:connector-curvature="0" fill="#FFFFFF" d="M1960.594,115.951c0-7.359,0.484-18.438,7.838-26.314
	c10.167-11.533,26.866-11.09,37.462-11.09h86.441c25.412,0,48.965,2.346,68.384,19.883c12.936,11.602,24.047,30.035,24.047,63.813
	v161.267h-54.087V178.329c0-16.087-1.402-31.806-10.148-43.413c-7.879-10.142-18.964-14.745-38.822-14.745h-55.01
	c-3.2,0-6.44,0-9.229,2.789c-2.783,3.248-2.783,6.937-2.783,10.178v190.369h-54.092V115.951"/>
<path id="path3017" inkscape:connector-curvature="0" fill="#FFFFFF" d="M985.31,700.092h179.62
	c29.176,0,30.531-24.049,30.531-35.201c0-12.97-3.237-27.759-31.474-36.571l-127.747-40.262
	c-5.087-1.435-25.492-8.371-38.458-24.058c-14.813-17.638-16.651-43.118-16.651-61.134c0-19.451,2.324-43.046,20.842-60.167
	c16.656-15.75,37.504-18.102,53.223-18.102h186.599v48.643h-165.746c-8.329,0-18.059,0.444-25.486,7.38
	c-7.843,7.391-8.334,19.008-8.334,25.039c0,14.315,4.186,28.19,30.12,36.561l118.512,37.467
	c21.758,6.937,36.571,13.948,46.302,23.152c19.451,18.543,21.291,47.271,21.291,62.495c0,20.429-2.784,43.054-16.204,60.248
	c-16.214,20.8-36.572,23.13-57.862,23.13H985.31V700.092"/>
<path id="path3019" inkscape:connector-curvature="0" fill="#FFFFFF" d="M1344.361,689.465c15.76,18.018,39.36,20.357,58.811,20.357
	c20.357,0,42.111-2.34,58.315-20.357c16.208-18.092,16.208-41.694,16.208-62.959c0-18.091,1.397-45.838-15.723-64.836
	c-15.751-17.637-39.345-19.45-58.8-19.45c-17.601,0-43.988,1.813-59.259,19.45c-15.27,17.563-15.27,49.075-15.27,64.836
	C1328.643,646.865,1329.106,671.817,1344.361,689.465L1344.361,689.465z M1502.233,526.469
	c28.237,26.388,31.484,72.681,31.484,98.604c0,51.869-13.421,82.864-31.484,99.983c-26.383,24.563-70.829,26.379-99.061,26.379
	c-29.171,0-72.227-1.806-99.066-26.379c-29.182-26.853-31.469-73.135-31.469-98.097c0-27.81,3.242-74.103,31.469-100.49
	c26.84-24.964,69.895-25.943,99.066-25.943C1432.353,500.526,1475.392,501.505,1502.233,526.469"/>
<path id="path3021" inkscape:connector-curvature="0" fill="#FFFFFF" d="M1572.498,748.712V545.013h-34.221v-41.24h34.221
	c0.495-16.215,4.639-44.859,25.486-62.055c23.146-18.911,68.046-21.263,95.824-20.355v39.807c-27.783,0-43.503,0.991-53.222,7.475
	c-6.979,4.597-14.359,14.771-13.917,34.676h67.139v41.693h-67.139v203.699H1572.498"/>
<path id="path3023" inkscape:connector-curvature="0" fill="#FFFFFF" d="M1838.939,748.712c-32.87,0-50.471-5.577-65.741-18.089
	c-15.719-12.97-24.537-30.982-24.537-62.042V545.013h-33.773V503.32h33.773v-78.722h54.161v78.722h68.541v41.693h-68.541v98.604
	c0,16.665-1.387,39.807,14.369,52.785c12.029,10.176,32.413,10.627,42.106,10.627h13.462v41.684H1838.939"/>
<path id="path3025" inkscape:connector-curvature="0" fill="#FFFFFF" d="M1979.66,683.581c0.453,2.341,2.335,7.393,4.633,7.393
	c2.794,0,4.186-5.513,4.645-6.936l44.895-162.016c6.029-21.719,26.381-22.699,35.659-22.699c11.086,0,30.082,2.331,35.617,22.699
	l45.39,162.016c0.449,1.884,1.846,6.936,4.148,6.936c2.335,0,4.182-4.153,5.13-7.393l46.738-181.463h51.827l-58.31,214.788
	c-7.881,28.718-24.089,33.314-42.137,33.314c-12.931,0-35.176-2.256-42.112-27.281l-42.603-153.731
	c-0.442-1.813-1.392-7.843-3.689-7.843c-2.34,0-3.24,6.03-3.731,7.843l-42.56,153.731c-3.732,12.524-13.906,27.281-42.143,27.281
	c-32.866,0-38.907-20.345-42.145-33.314l-58.313-214.788h51.83L1979.66,683.581"/>
<path id="path3027" inkscape:connector-curvature="0" fill="#FFFFFF" d="M2333.287,637.598c-3.69,0-13.91,0.441-19.894,8.286
	c-1.855,2.34-6.04,8.823-6.04,26.387c0,7.463,0.943,20.433,7.427,27.37c3.69,3.688,10.627,7.388,17.563,7.388h75.473
	c3.242,0,8.329,0,12.025-2.782c3.729-3.258,3.729-6.494,3.729-10.185v-56.464H2333.287L2333.287,637.598z M2408.756,503.32
	c20.81,0,39.813,7.378,50.93,18.997c10.179,10.636,18.059,30.54,18.059,57.824v127.342c0,8.822-0.948,22.687-9.72,31.512
	c-8.835,8.75-22.249,9.718-33.82,9.718h-117.131c-13.41,0-30.567,0-44.436-12.059c-19.91-17.111-21.306-48.635-21.306-66.648
	c0-21.781,2.308-43.499,20.846-59.713c15.277-13.411,31.939-14.39,44.896-14.39h106.498v-17.111c0-7.401-0.937-15.761-6.979-23.15
	c-7.386-9.278-18.048-10.628-26.387-10.628h-120.811V503.32H2408.756"/>
<path id="path3029" inkscape:connector-curvature="0" fill="#FFFFFF" d="M2504.47,595.903c0-26.841,4.639-53.23,25.442-71.257
	c22.698-19.905,54.657-21.326,73.628-21.326h36.556v41.693h-22.65c-14.368,0-33.36,1.803-46.334,17.111
	c-10.173,12.513-12.476,29.635-12.476,48.179v138.409h-54.166V595.903"/>
<path id="path3031" inkscape:connector-curvature="0" fill="#FFFFFF" d="M2819.043,602.385c10.673,0,12.061-7.843,12.061-14.327
	c0-15.309-7.87-26.841-15.755-32.87c-13.417-10.175-31.022-11.154-46.294-11.154c-14.363,0-36.56-0.453-51.377,16.204
	c-11.128,12.512-10.663,25.943-11.128,42.147H2819.043z M2743.121,748.712c-24.989,0-54.625-2.33-74.972-31.059
	c-16.214-23.15-17.611-56.916-17.611-89.334c0-45.838,2.299-79.616,29.186-102.767c26.826-23.132,68.485-23.132,91.641-23.132
	c28.717,0,58.352,1.352,81.039,15.751c28.692,18.019,34.722,48.549,34.722,79.605c0,12.525-1.397,26.853-11.574,37.024
	c-7.424,7.392-16.662,9.277-26.383,9.277H2706.55c0,10.628,1.397,26.378,3.247,33.779c6.944,26.388,29.635,29.17,49.534,29.17
	h119.914v41.684H2743.121"/>
<path id="path3063" inkscape:connector-curvature="0" fill="#FFFFFF" d="M752.533,0H1.095v751.435h751.438V0L752.533,0z
	 M716.875,35.575v680.204H36.681V35.575H716.875"/>
<path id="path3065" inkscape:connector-curvature="0" fill="#FFFFFF" d="M125.574,420.234c0-35.285,6.178-70.033,33.545-93.711
	c29.852-26.165,71.852-28.053,96.727-28.053h140.914v54.82H274.164c-18.845,0-43.878,2.34-60.914,22.466
	c-13.416,16.509-16.441,39.049-16.441,63.413v181.982h-71.235V420.234"/>
<path id="path3067" inkscape:connector-curvature="0" fill="#FFFFFF" d="M399.703,539.509c0,6.707-0.606,15.225,4.891,21.328
	c4.829,4.988,12.145,5.588,19.461,5.588h51.79c18.845,0,51.115-1.361,67.55-33.029c4.291-8.518,10.938-26.155,10.938-68.83
	c0-51.035-8.45-71.099-10.938-75.99c-13.947-29.856-43.202-35.286-65.141-35.286h-78.551V539.509L399.703,539.509z M399.703,130.272
	V298.47h94.386c38.974,0,85.192,6.104,112.634,52.934c17.717,29.856,21.338,69.359,21.338,110.221
	c0,52.321-7.917,84.592-20.732,106.604c-26.161,45.091-73.665,52.923-111.426,52.923H394.189c-18.244,0-36.487-0.601-51.115-13.948
	c-12.745-12.207-14.548-27.357-14.548-40.178V130.272H399.703"/>
</svg>
